<?xml version="1.0" encoding="UTF-8"?>
<svg xmlns="http://www.w3.org/2000/svg" viewBox="0 0 400 400">
    <rect width="400" height="400" fill="white"/>

    <!-- cross instances -->
    <g transform="translate(100.6 270.0) rotate(22.3)">
        <path d="M -6.7 -13.3 L 6.7 -13.3 L 6.7 -6.7 L 13.3 -6.7 L 13.3 6.7 L 6.7 6.7 L 6.7 13.3 L -6.7 13.3 L -6.7 6.7 L -13.3 6.7 L -13.3 -6.7 L -6.7 -6.7 Z" fill="#00FF00" stroke="black" stroke-width="2"/>
    </g>
    <g transform="translate(233.3 53.8) rotate(55.7)">
        <path d="M -8.0 -16.0 L 8.0 -16.0 L 8.0 -8.0 L 16.0 -8.0 L 16.0 8.0 L 8.0 8.0 L 8.0 16.0 L -8.0 16.0 L -8.0 8.0 L -16.0 8.0 L -16.0 -8.0 L -8.0 -8.0 Z" fill="#0000FF" stroke="black" stroke-width="2"/>
    </g>
    <g transform="translate(345.2 57.8) rotate(256.4)">
        <path d="M -4.5 -9.1 L 4.5 -9.1 L 4.5 -4.5 L 9.1 -4.5 L 9.1 4.5 L 4.5 4.5 L 4.5 9.1 L -4.5 9.1 L -4.5 4.5 L -9.1 4.5 L -9.1 -4.5 L -4.5 -4.5 Z" fill="#00FF00" stroke="black" stroke-width="2"/>
    </g>
    <g transform="translate(54.9 280.0) rotate(253.3)">
        <path d="M -3.8 -7.6 L 3.8 -7.6 L 3.8 -3.8 L 7.6 -3.8 L 7.6 3.8 L 3.8 3.8 L 3.8 7.6 L -3.8 7.6 L -3.8 3.8 L -7.6 3.8 L -7.6 -3.8 L -3.8 -3.8 Z" fill="#FFA500" stroke="black" stroke-width="2"/>
    </g>

    <!-- octagon instances -->
    <g transform="translate(133.9 186.7) rotate(166.5)">
        <path d="M -4.2 -8.4 L 4.2 -8.4 L 8.4 -4.2 L 8.4 4.2 L 4.2 8.4 L -4.2 8.4 L -8.4 4.2 L -8.4 -4.2 Z" fill="#00FF00" stroke="black" stroke-width="2"/>
    </g>
    <g transform="translate(346.7 173.8) rotate(151.6)">
        <path d="M -8.0 -16.0 L 8.0 -16.0 L 16.0 -8.0 L 16.0 8.0 L 8.0 16.0 L -8.0 16.0 L -16.0 8.0 L -16.0 -8.0 Z" fill="#808080" stroke="black" stroke-width="2"/>
    </g>
    <g transform="translate(117.2 154.8) rotate(243.1)">
        <path d="M -7.0 -14.0 L 7.0 -14.0 L 14.0 -7.0 L 14.0 7.0 L 7.0 14.0 L -7.0 14.0 L -14.0 7.0 L -14.0 -7.0 Z" fill="#000000" stroke="black" stroke-width="2"/>
    </g>
    <g transform="translate(224.2 362.3) rotate(11.3)">
        <path d="M -8.6 -17.2 L 8.6 -17.2 L 17.2 -8.6 L 17.2 8.6 L 8.6 17.2 L -8.6 17.2 L -17.2 8.6 L -17.2 -8.6 Z" fill="#00FF00" stroke="black" stroke-width="2"/>
    </g>
    <g transform="translate(284.8 207.2) rotate(327.4)">
        <path d="M -7.0 -14.0 L 7.0 -14.0 L 14.0 -7.0 L 14.0 7.0 L 7.0 14.0 L -7.0 14.0 L -14.0 7.0 L -14.0 -7.0 Z" fill="#800080" stroke="black" stroke-width="2"/>
    </g>

    <!-- pentagon instances -->
    <g transform="translate(241.3 181.0) rotate(49.6)">
        <path d="M 0.0 -7.1 L 6.6 -2.7 L 4.4 6.2 L -4.4 6.2 L -6.6 -2.7 Z" fill="#0000FF" stroke="black" stroke-width="2"/>
    </g>
    <g transform="translate(97.6 308.7) rotate(247.0)">
        <path d="M 0.0 -6.5 L 6.1 -2.4 L 4.1 5.7 L -4.1 5.7 L -6.1 -2.4 Z" fill="#FF0000" stroke="black" stroke-width="2"/>
    </g>
    <g transform="translate(165.2 45.6) rotate(212.0)">
        <path d="M 0.0 -10.0 L 9.4 -3.7 L 6.2 8.7 L -6.2 8.7 L -9.4 -3.7 Z" fill="#808080" stroke="black" stroke-width="2"/>
    </g>
    <g transform="translate(190.4 177.9) rotate(346.0)">
        <path d="M 0.0 -11.7 L 11.0 -4.4 L 7.3 10.3 L -7.3 10.3 L -11.0 -4.4 Z" fill="#00FF00" stroke="black" stroke-width="2"/>
    </g>
    <g transform="translate(180.8 103.6) rotate(76.2)">
        <path d="M 0.0 -10.1 L 9.5 -3.8 L 6.3 8.8 L -6.3 8.8 L -9.5 -3.8 Z" fill="#808080" stroke="black" stroke-width="2"/>
    </g>
    <g transform="translate(175.4 242.4) rotate(284.8)">
        <path d="M 0.0 -9.9 L 9.3 -3.7 L 6.2 8.7 L -6.2 8.7 L -9.3 -3.7 Z" fill="#800080" stroke="black" stroke-width="2"/>
    </g>

    <!-- hexagon instances -->
    <g transform="translate(109.4 347.6) rotate(200.8)">
        <path d="M 0.0 -7.5 L 7.5 -3.8 L 7.5 3.8 L 0.0 7.5 L -7.5 3.8 L -7.5 -3.8 Z" fill="#FFA500" stroke="black" stroke-width="2"/>
    </g>
    <g transform="translate(303.6 314.8) rotate(216.6)">
        <path d="M 0.0 -11.5 L 11.5 -5.8 L 11.5 5.8 L 0.0 11.5 L -11.5 5.8 L -11.5 -5.8 Z" fill="#00FF00" stroke="black" stroke-width="2"/>
    </g>
    <g transform="translate(225.1 139.4) rotate(23.0)">
        <path d="M 0.0 -13.0 L 13.0 -6.5 L 13.0 6.5 L 0.0 13.0 L -13.0 6.5 L -13.0 -6.5 Z" fill="#0000FF" stroke="black" stroke-width="2"/>
    </g>
    <g transform="translate(369.7 272.3) rotate(122.5)">
        <path d="M 0.0 -14.1 L 14.1 -7.0 L 14.1 7.0 L 0.0 14.1 L -14.1 7.0 L -14.1 -7.0 Z" fill="#000000" stroke="black" stroke-width="2"/>
    </g>

    <!-- star instances -->
    <g transform="translate(77.8 49.1) rotate(126.2)">
        <path d="M 0.0 -10.0 L 2.5 -3.2 L 10.0 -3.2 L 4.1 1.4 L 6.6 8.2 L 0.0 3.6 L -6.6 8.2 L -4.1 1.4 L -10.0 -3.2 L -2.5 -3.2 Z" fill="#0000FF" stroke="black" stroke-width="2"/>
    </g>
    <g transform="translate(280.9 261.7) rotate(26.8)">
        <path d="M 0.0 -25.9 L 6.5 -8.2 L 25.9 -8.2 L 10.6 3.5 L 17.1 21.2 L 0.0 9.4 L -17.1 21.2 L -10.6 3.5 L -25.9 -8.2 L -6.5 -8.2 Z" fill="#0000FF" stroke="black" stroke-width="2"/>
    </g>

    <!-- triangle instances -->
    <g transform="translate(58.7 220.5) rotate(40.4)">
        <path d="M 0.0 -22.0 L 16.5 11.0 L -16.5 11.0 Z" fill="#0000FF" stroke="black" stroke-width="2"/>
    </g>
</svg>