<?xml version="1.0" encoding="utf-8" ?>
<svg baseProfile="full" height="1000px" version="1.1" width="600px" xmlns="http://www.w3.org/2000/svg" xmlns:ev="http://www.w3.org/2001/xml-events" xmlns:xlink="http://www.w3.org/1999/xlink"><defs /><rect fill="white" height="100%" width="100%" x="0" y="0" /><text font-family="Arial" font-size="24" text-anchor="middle" x="300" y="40">Visual Discrimination Test</text><text font-family="Arial" font-size="18" text-anchor="middle" x="300" y="80">Target Pattern</text><g transform="translate(200,100)"><polygon fill="none" points="61,142 101,142 81.0,102" stroke="black" stroke-width="2" transform="rotate(196,81.0,122.0)" /><polygon fill="none" points="132,126 162,126 147.0,96" stroke="black" stroke-width="2" transform="rotate(115,147.0,111.0)" /></g><text font-family="Arial" font-size="18" text-anchor="middle" x="300" y="350">Options</text><text font-family="Arial" font-size="14" text-anchor="middle" x="175" y="380">Option 1</text><g transform="translate(100,400)"><polygon fill="none" points="61,146.8 117.0,146.8 89.0,102" stroke="black" stroke-width="2" transform="rotate(199,89.0,124.4)" /><polygon fill="none" points="132,129.6 174.0,129.6 153.0,96" stroke="black" stroke-width="2" transform="rotate(119,153.0,112.8)" /></g><text font-family="Arial" font-size="14" text-anchor="middle" x="425" y="380">Option 2</text><g transform="translate(350,400)"><polygon fill="none" points="61,146.8 117.0,146.8 89.0,102" stroke="black" stroke-width="2" transform="rotate(202,89.0,124.4)" /><polygon fill="none" points="132,129.6 174.0,129.6 153.0,96" stroke="black" stroke-width="2" transform="rotate(122,153.0,112.8)" /></g><text font-family="Arial" font-size="14" text-anchor="middle" x="175" y="630">Option 3</text><g transform="translate(100,650)"><polygon fill="none" points="61,146.8 117.0,146.8 89.0,102" stroke="black" stroke-width="2" transform="rotate(203,89.0,124.4)" /><polygon fill="none" points="132,129.6 174.0,129.6 153.0,96" stroke="black" stroke-width="2" transform="rotate(121,153.0,112.8)" /></g><text font-family="Arial" font-size="14" text-anchor="middle" x="425" y="630">Option 4</text><g transform="translate(350,650)"><polygon fill="none" points="61,142 101,142 81.0,102" stroke="black" stroke-width="2" transform="rotate(196,81.0,122.0)" /><polygon fill="none" points="132,126 162,126 147.0,96" stroke="black" stroke-width="2" transform="rotate(115,147.0,111.0)" /></g></svg>